<svg xmlns="http://www.w3.org/2000/svg" viewBox="0 0 24 24" fill="currentColor">
  <path d="M11.974 0C5.362 0 0 5.362 0 11.974S5.362 23.948 11.974 23.948 23.948 18.586 23.948 11.974C23.948 5.362 18.586 0 11.974 0zm4.586 3.466a1.5 1.5 0 0 1 1.5 1.5 1.5 1.5 0 0 1-1.5 1.5 1.5 1.5 0 0 1-1.5-1.5 1.5 1.5 0 0 1 1.5-1.5zm-9.16 8.508l2.345.977.977-2.345 2.345.977-.977 2.345 2.345.977-2.345.977-.977 2.345-2.345-.977.977-2.345-2.345-.977zm4.586 0a1.5 1.5 0 0 1 1.5 1.5 1.5 1.5 0 0 1-1.5 1.5 1.5 1.5 0 0 1-1.5-1.5 1.5 1.5 0 0 1 1.5-1.5z"/>
</svg>